<svg xmlns="http://www.w3.org/2000/svg" viewBox="0 0 500 500"><g id="freepik--background-simple--inject-148"><path d="M322.5,91.13c-50.65,8.14-110-46.81-155.88-2-40.06,39.18,15.14,89.06-39.19,116.5-33,16.64-102.79,38.84-53.95,94.56,29.65,33.83,83.43,50.48,128,45.24,69.07-8.12,24.07-81.27,61.72-115.86,16.92-15.55,33.46-7.75,52.56-6.67,28.09,1.58,64.33.88,91.37-11,43-18.89,63.91-83.81,46-127.53C421.81,8.08,369.19,83.62,322.5,91.13Z" style="fill:#F14836"></path><path d="M322.5,91.13c-50.65,8.14-110-46.81-155.88-2-40.06,39.18,15.14,89.06-39.19,116.5-33,16.64-102.79,38.84-53.95,94.56,29.65,33.83,83.43,50.48,128,45.24,69.07-8.12,24.07-81.27,61.72-115.86,16.92-15.55,33.46-7.75,52.56-6.67,28.09,1.58,64.33.88,91.37-11,43-18.89,63.91-83.81,46-127.53C421.81,8.08,369.19,83.62,322.5,91.13Z" style="fill:#fff;opacity:0.9"></path></g><g id="freepik--design-stats--inject-148"><path d="M407.61,312.43H144.18a11.3,11.3,0,0,1-11.36-12l9.83-201a12.72,12.72,0,0,1,12.54-12H418.62a11.29,11.29,0,0,1,11.36,12l-9.83,201A12.73,12.73,0,0,1,407.61,312.43Z" style="fill:#F14836"></path><path d="M407.61,312.43H144.18a11.3,11.3,0,0,1-11.36-12l9.83-201a12.72,12.72,0,0,1,12.54-12H418.62a11.29,11.29,0,0,1,11.36,12l-9.83,201A12.73,12.73,0,0,1,407.61,312.43Z" style="fill:#fff;opacity:0.7000000000000001"></path><path d="M428.82,89.6a13.24,13.24,0,0,0-5.11-3.5l.36-.94a14.57,14.57,0,0,1,5.49,3.76Z" style="fill:#F14836"></path><rect x="397.69" y="84.19" width="21.06" height="1" style="fill:#F14836"></rect><path d="M418.62,87.49H155.19a12.72,12.72,0,0,0-12.54,12H430A11.29,11.29,0,0,0,418.62,87.49Z" style="fill:#F14836"></path><path d="M140.86,298.87,150,113a5.92,5.92,0,0,1,5.85-5.58H416a5.26,5.26,0,0,1,5.31,5.58l-9.09,185.88a5.93,5.93,0,0,1-5.86,5.59H146.17A5.27,5.27,0,0,1,140.86,298.87Z" style="fill:#fff"></path><path d="M177.78,171.14h-12a1.9,1.9,0,0,1-1.92-2l1-21a2.14,2.14,0,0,1,2.12-2h12a1.9,1.9,0,0,1,1.93,2l-1,21A2.14,2.14,0,0,1,177.78,171.14Z" style="fill:#F14836;opacity:0.30000000000000004"></path><path d="M201.8,171.14h-12a1.92,1.92,0,0,1-1.93-2l1.21-24.8a2.16,2.16,0,0,1,2.13-2h12a1.92,1.92,0,0,1,1.93,2l-1.21,24.8A2.16,2.16,0,0,1,201.8,171.14Z" style="fill:#F14836;opacity:0.30000000000000004"></path><path d="M225.82,171.14h-12a1.92,1.92,0,0,1-1.93-2l1.34-27.39a2.16,2.16,0,0,1,2.13-2h12a1.92,1.92,0,0,1,1.93,2L228,169.11A2.16,2.16,0,0,1,225.82,171.14Z" style="fill:#F14836;opacity:0.30000000000000004"></path><path d="M249.85,171.14h-12a1.91,1.91,0,0,1-1.92-2l1.45-29.74a2.16,2.16,0,0,1,2.13-2h12a1.92,1.92,0,0,1,1.93,2L252,169.11A2.14,2.14,0,0,1,249.85,171.14Z" style="fill:#F14836;opacity:0.30000000000000004"></path><path d="M273.87,171.14h-12a1.92,1.92,0,0,1-1.93-2l1.9-38.81a2.15,2.15,0,0,1,2.13-2h12a1.92,1.92,0,0,1,1.93,2L276,169.11A2.16,2.16,0,0,1,273.87,171.14Z" style="fill:#F14836"></path><path d="M270.74,124.16l1.14-1.82a.65.65,0,0,0-.55-1h-2.11a.65.65,0,0,0-.57,1l1,1.82A.64.64,0,0,0,270.74,124.16Z" style="fill:#263238"></path><path d="M297.89,171.14h-12a1.92,1.92,0,0,1-1.93-2l1.6-32.69a2.16,2.16,0,0,1,2.13-2h12a1.92,1.92,0,0,1,1.93,2L300,169.11A2.15,2.15,0,0,1,297.89,171.14Z" style="fill:#F14836;opacity:0.30000000000000004"></path><path d="M298.94,177.66H164.13a.62.62,0,0,1-.63-.66h0a.71.71,0,0,1,.7-.66H299a.62.62,0,0,1,.63.66h0A.69.69,0,0,1,298.94,177.66Z" style="fill:#263238;opacity:0.1"></path><path d="M308.54,294.58l8.68-177.3a.66.66,0,0,1,.66-.63h.06a.59.59,0,0,1,.6.63l-8.67,177.3a.68.68,0,0,1-.66.64h-.07A.61.61,0,0,1,308.54,294.58Z" style="fill:#263238;opacity:0.1"></path><path d="M353.05,150.3a20.29,20.29,0,0,0,2.4,14L349.51,168a27.09,27.09,0,0,1-3.19-18.59,29.68,29.68,0,0,1,27.59-24.13l0,6.82A22.34,22.34,0,0,0,353.05,150.3Z" style="fill:#F14836"></path><path d="M400,142.46l-6.44,2.6a19.68,19.68,0,0,0-16-12.8,20.27,20.27,0,0,0-3.64-.17l0-6.82A26.54,26.54,0,0,1,400,142.46Z" style="fill:#F14836;opacity:0.30000000000000004"></path><path d="M401.14,156.74c-2.76,15.14-17.4,25.93-32.44,23.92A26.15,26.15,0,0,1,349.51,168l5.94-3.66a19.67,19.67,0,0,0,14.48,9.56,22.26,22.26,0,0,0,24.48-18,20.5,20.5,0,0,0-.88-10.78l6.44-2.6A27.33,27.33,0,0,1,401.14,156.74Z" style="fill:#263238"></path><path d="M352.88,129.72a.51.51,0,0,1-.37-.15l-4.43-4.67H332.86a.5.5,0,0,1-.5-.5.5.5,0,0,1,.5-.5h15.43a.48.48,0,0,1,.36.16l4.59,4.82a.49.49,0,0,1-.36.84Z" style="fill:#263238"></path><path d="M381.83,208.76a20.24,20.24,0,0,0-14-2.75l-.74-6.75a27.12,27.12,0,0,1,18.51,3.64c11.19,6.94,15.42,21.28,10,33.83l-6.25-2.44C393.42,225,390.45,214.1,381.83,208.76Z" style="fill:#F14836;opacity:0.30000000000000004"></path><path d="M368.27,254.57l.46-6.83a22.17,22.17,0,0,0,18.86-10.17,21.75,21.75,0,0,0,1.77-3.28l6.25,2.44a29,29,0,0,1-2.34,4.36A29.48,29.48,0,0,1,368.27,254.57Z" style="fill:#263238"></path><path d="M354.61,250.6c-12.7-7.87-16.14-25.12-7.63-38.2a29.62,29.62,0,0,1,20.15-13.14l.74,6.75a22.3,22.3,0,0,0-15.21,9.91c-6.46,9.94-3.88,22.85,5.76,28.83a20,20,0,0,0,10.31,3l-.46,6.83A26.68,26.68,0,0,1,354.61,250.6Z" style="fill:#F14836"></path><path d="M349.27,203.41a.52.52,0,0,1-.36-.16l-4.44-4.67H329.25a.5.5,0,0,1-.5-.5.5.5,0,0,1,.5-.5h15.44a.52.52,0,0,1,.36.16l4.58,4.82a.5.5,0,0,1,0,.71A.54.54,0,0,1,349.27,203.41Z" style="fill:#263238"></path><path d="M336.06,279.41H331a2.72,2.72,0,0,0-2.67,2.55l-.25,5.07a2.41,2.41,0,0,0,2.43,2.55h5.06a2.72,2.72,0,0,0,2.68-2.55l.25-5.07A2.42,2.42,0,0,0,336.06,279.41Z" style="fill:#F14836"></path><path d="M364.44,279.41h-5.06A2.72,2.72,0,0,0,356.7,282l-.24,5.07a2.41,2.41,0,0,0,2.42,2.55H364a2.72,2.72,0,0,0,2.67-2.55l.25-5.07A2.41,2.41,0,0,0,364.44,279.41Z" style="fill:#263238"></path><path d="M392.83,279.41h-5.07a2.72,2.72,0,0,0-2.67,2.55l-.25,5.07a2.41,2.41,0,0,0,2.42,2.55h5.07A2.71,2.71,0,0,0,395,287l.25-5.07A2.41,2.41,0,0,0,392.83,279.41Z" style="fill:#F14836;opacity:0.30000000000000004"></path><text transform="matrix(1, 0, -0.05, 1, 171.72, 219.43)" style="font-size:10.766500473022461px;fill:#263238;font-family:Arial-BoldMT, Arial;font-weight:700">25.54<tspan x="26.94" y="0" style="font-size:7.17765998840332px;letter-spacing:0.00013621792391348012em">%</tspan></text><path d="M215.75,234.79l-.12,0a.49.49,0,0,1-.37-.6c3.38-14.21,10.55-28.77,19-29.24,5.65-.32,8.87,4.4,12.6,9.85,2.7,3.93,5.75,8.38,10.22,11.74,3.08,2.31,6.22,2.91,9.34,1.79,6.95-2.51,13.6-13.82,17.36-29.51a.5.5,0,1,1,1,.24c-3.89,16.25-10.62,27.55-18,30.21-3.46,1.24-6.92.59-10.28-1.93-4.6-3.45-7.7-8-10.44-12-3.72-5.42-6.64-9.69-11.72-9.42-7.89.44-14.74,14.62-18,28.47A.5.5,0,0,1,215.75,234.79Z" style="fill:#F14836"></path><path d="M289,241.71H167.85a7.58,7.58,0,0,1-7.62-8L162,198.43a8.47,8.47,0,0,1,8.36-8H291.46a7.58,7.58,0,0,1,7.62,8l-1.72,35.27A8.47,8.47,0,0,1,289,241.71ZM170.31,191.46a7.46,7.46,0,0,0-7.36,7l-1.72,35.27a6.57,6.57,0,0,0,6.62,7H289a7.46,7.46,0,0,0,7.36-7l1.73-35.27a6.59,6.59,0,0,0-6.63-7Z" style="fill:#263238;opacity:0.1"></path><path d="M194.06,200.46H174.48a2.19,2.19,0,0,1-2.19-2.31,2.4,2.4,0,0,1,2.37-2.27h19.57a2.19,2.19,0,0,1,2.2,2.31A2.41,2.41,0,0,1,194.06,200.46Zm-19.4-3.58a1.4,1.4,0,0,0-1.37,1.31,1.18,1.18,0,0,0,.32.9,1.23,1.23,0,0,0,.87.37h19.58a1.41,1.41,0,0,0,1.37-1.31,1.19,1.19,0,0,0-.33-.9,1.16,1.16,0,0,0-.87-.37Z" style="fill:#263238;opacity:0.1"></path><polygon points="176.3 230.2 171.22 230.2 170.97 235.28 176.05 235.28 176.3 230.2" style="fill:#F14836"></polygon><path d="M181.87,295.17H171.51a3.28,3.28,0,0,1-3.3-3.46l.51-10.37a3.69,3.69,0,0,1,3.63-3.47h10.37a3.27,3.27,0,0,1,3.29,3.47l-.5,10.37A3.7,3.7,0,0,1,181.87,295.17Z" style="fill:#F14836;opacity:0.30000000000000004"></path><path d="M221.62,289.51H194.89a2.84,2.84,0,0,1-2.86-3,3.15,3.15,0,0,1,3.11-3h26.72a2.86,2.86,0,0,1,2.87,3A3.15,3.15,0,0,1,221.62,289.51Zm-26.48-5a2.16,2.16,0,0,0-2.12,2,1.91,1.91,0,0,0,.51,1.39,1.87,1.87,0,0,0,1.36.57h26.73a2.13,2.13,0,0,0,2.11-2,1.81,1.81,0,0,0-.51-1.39,1.85,1.85,0,0,0-1.36-.58Z" style="fill:#263238;opacity:0.1"></path><path d="M177,289.51h0a.5.5,0,0,1-.48-.52l.22-4.43a.47.47,0,0,1,.52-.47.5.5,0,0,1,.48.52l-.22,4.43A.5.5,0,0,1,177,289.51Z" style="fill:#F14836"></path><path d="M175.09,286.58a.52.52,0,0,1-.36-.16.5.5,0,0,1,0-.71l2.14-2a.51.51,0,0,1,.36-.14.54.54,0,0,1,.35.16l1.94,2a.5.5,0,0,1-.73.69l-1.59-1.68-1.78,1.7A.54.54,0,0,1,175.09,286.58Z" style="fill:#F14836"></path><text transform="matrix(1, 0, -0.05, 1, 169.44, 265.92)" style="font-size:10.766500473022461px;fill:#263238;font-family:Arial-BoldMT, Arial;font-weight:700">$323,078.00</text><path d="M250.23,277.87H239.87a3.7,3.7,0,0,0-3.64,3.47l-.5,10.37a3.27,3.27,0,0,0,3.29,3.46h10.37a3.69,3.69,0,0,0,3.63-3.46l.51-10.37A3.28,3.28,0,0,0,250.23,277.87Z" style="fill:#263238;opacity:0.4"></path><path d="M289.13,289.51H262.41a2.86,2.86,0,0,1-2.87-3,3.15,3.15,0,0,1,3.11-3h26.73a2.87,2.87,0,0,1,2.87,3A3.16,3.16,0,0,1,289.13,289.51Zm-26.48-5a2.15,2.15,0,0,0-2.11,2,1.91,1.91,0,0,0,.51,1.39,1.86,1.86,0,0,0,1.36.57h26.72a2.14,2.14,0,0,0,2.12-2,1.86,1.86,0,0,0-1.87-2Z" style="fill:#263238;opacity:0.1"></path><path d="M244.53,289h0a.5.5,0,0,1-.48-.52l.22-4.43a.48.48,0,0,1,.52-.48.51.51,0,0,1,.48.53l-.22,4.42A.5.5,0,0,1,244.53,289Z" style="fill:#fff"></path><path d="M244.51,289.51h0a.53.53,0,0,1-.35-.15l-1.94-2a.5.5,0,0,1,0-.71.5.5,0,0,1,.71,0l1.59,1.68,1.78-1.7a.5.5,0,0,1,.71,0,.49.49,0,0,1,0,.7l-2.14,2.05A.53.53,0,0,1,244.51,289.51Z" style="fill:#fff"></path></g></svg>